<?xml version="1.0" encoding="UTF-8" standalone="no"?>
<!--

    Copyright (c) 2012-2017 Red Hat, Inc.
    All rights reserved. This program and the accompanying materials
    are made available under the terms of the Eclipse Public License v1.0
    which accompanies this distribution, and is available at
    http://www.eclipse.org/legal/epl-v10.html

    Contributors:
      Red Hat, Inc. - initial API and implementation

-->
<svg id="svg3077" xmlns:rdf="http://www.w3.org/1999/02/22-rdf-syntax-ns#" xmlns="http://www.w3.org/2000/svg" height="100%" width="100%" version="1.1" xmlns:cc="http://creativecommons.org/ns#" xmlns:dc="http://purl.org/dc/elements/1.1/" viewBox="0 0 225 57">
  <defs>
    <style type="text/css">.cls-1{fill:#3cd27d;fill-opacity:0.2;}.cls-2{fill:#647d9b;fill-opacity:0.2;}</style>
  </defs>
  <g>
    <path class="cls-1" d="M4.796048768289161,49.083502634104796 c0,-3.0493841972667752 1.6182707008333157,-7.765671835700022 1.6182707008333157,-11.332612066447854 c0,-3.2219028750937944 -1.3402716837907211,-5.809683042499085 -6.414318783470599,-6.154720398153123 V26.877551197586424 c5.074047099679879,-0.3450373556540388 6.414318783470599,-2.932817523059329 6.414318783470599,-6.154720398153123 c0,-3.5669402307478335 -1.6182707008333157,-8.283227869181081 -1.6182707008333157,-11.332612066447854 c0,-3.394421552920814 2.007017293770928,-6.903078446564924 7.474331295608623,-6.903078446564924 a15.859504899088515,16.358967058272906 0 0 1 4.014034587541856,0.5758393705847812 v3.853694249298149 a15.843683816817794,16.34264772388386 0 0 0 -2.7890307888663566,-0.3450373556540388 c-2.3415201760660818,0 -2.9540220754038318,1.380149422616155 -2.9540220754038318,3.1636195379900722 c0,3.0493841972667752 1.729018276728333,7.823955172803744 1.729018276728333,11.966734774136357 c0,3.392090219436665 -1.1730202426431435,6.3855224130838675 -5.5215577124801545,7.534869820769279 c4.3485374698370105,1.1493474076854127 5.5215577124801545,4.142779601332614 5.5215577124801545,7.534869820769279 c0,4.142779601332614 -1.729018276728333,8.917350576869582 -1.729018276728333,11.966734774136357 c0,1.7834701153739168 0.6125018993377493,3.1636195379900722 2.9540220754038318,3.1636195379900722 a15.843683816817794,16.34264772388386 0 0 0 2.7890307888663566,-0.3450373556540388 v3.853694249298149 a15.859504899088515,16.358967058272906 0 0 1 -4.014034587541856,0.5758393705847812 C6.803066062060097,55.98658108066972 4.796048768289161,52.477924187025614 4.796048768289161,49.083502634104796 z" id="svg_1"/>
    <path class="cls-1" d="M20.341392176573443,38.727719297515335 h3.6795317052467014 v-30.540468642350724 H20.341392176573443 V3.125925661077325 h9.983102912822282 V38.727719297515335 h3.345028822951546 v5.063656327571433 h-13.334912199604135 zm16.117162524640186,0.23313334841489125 l-5.130550964932438,-7.306399139322686 v-0.17251867782701982 l7.026820682808349,-7.707388498596299 H34.953291730885404 V18.939360684059388 h12.993628853478675 v4.8958003167127115 H44.8233869132026 L38.08360586587725,31.307084817469356 l3.0670298059089514,4.196400271468039 c1.672514411475773,2.3010261488549753 3.0105259406563913,3.911977586401872 5.297802406080017,3.911977586401872 a6.757862284206163,6.970687117605242 0 0 0 1.4510192596857379,-0.17485001131116876 v4.604383631194098 a8.588587518389105,8.85906723976586 0 0 1 -2.956282230013934,0.5175560334810579 C41.2478223200206,44.367214995671546 38.913082607784816,42.46717820609019 36.45855470121363,38.95852131244608 z" id="svg_2"/>
    <path class="cls-1" d="M50.100847927791676,31.365368154573076 c0,-7.707388498596299 4.5722927762371475,-13.055467511233898 12.715629836436081,-13.055467511233898 s12.715629836436081,5.350410346121749 12.715629836436081,13.055467511233898 s-4.574552930847249,13.055467511233898 -12.715629836436081,13.055467511233898 S50.100847927791676,39.07275665316938 50.100847927791676,31.365368154573076 zm18.906193313506545,0 c0,-4.5437689606062275 -1.8962697178759105,-8.159667194521187 -6.190563477070462,-8.159667194521187 S56.61687366871689,26.82159919396685 56.61687366871689,31.365368154573076 s1.8962697178759105,8.159667194521187 6.190563477070462,8.159667194521187 S69.00704124129824,35.909137115179306 69.00704124129824,31.365368154573076 z" id="svg_3"/>
    <path class="cls-1" d="M78.66468189026575,31.365368154573076 c0,-7.996473850630761 4.520309220204791,-13.055467511233898 11.323374596613004,-13.055467511233898 c2.619519193108677,0 4.6830403521321635,0.7460267149276515 6.35781491821804,1.955988793200936 V8.23853999181589 H91.77131847424954 V3.125925661077325 h10.875863983812728 V38.727719297515335 h3.6795317052467014 v5.063656327571433 h-9.424844724126991 V41.02874544637031 c-1.729018276728333,1.9000367895813624 -3.9597908768993983,3.394421552920814 -7.472071140998522,3.394421552920814 C82.95897564946031,44.423166999291126 78.66468189026575,39.1310399902731 78.66468189026575,31.365368154573076 zM96.34587140509679,37.39652787806631 V24.807327063662193 a7.709387375059274,7.952178514431934 0 0 0 -4.685300506742267,-1.5526681004431746 c-4.407301489699672,0 -6.525066359365617,3.105336200886349 -6.525066359365617,7.996473850630761 c0,4.371250282779207 1.729018276728333,8.224944532077357 6.077555746565343,8.224944532077357 A7.777192013362344,8.0221185189564 0 0 0 96.34587140509679,37.39652787806631 z" id="svg_4"/>
    <path class="cls-1" d="M108.26818697338692,31.365368154573076 c0,-7.534869820769279 4.183546183299535,-13.055467511233898 11.822868765445634,-13.055467511233898 c7.585078871503642,0 11.043115424960307,5.5229290239487705 11.043115424960307,12.356067465989225 a14.865036870643456,15.333180325247387 0 0 1 -0.2260154610102398,2.76029884523231 H114.62600189160497 c0.6147620539478517,3.911977586401872 2.899778364761374,6.0404850574298266 7.250575989208486,6.0404850574298266 c3.2907851123090883,0 5.8560605947753075,-1.2659140818928585 7.7523303126512175,-2.3010261488549753 v5.00537299046771 a17.62920595879869,18.1844011763615 0 0 1 -8.699335094284121,2.2427428117512522 C112.44269253824608,44.423166999291126 108.26818697338692,38.90023797534236 108.26818697338692,31.365368154573076 zm6.303571207575582,-2.473544826681994 h10.652108677412594 c-0.2260154610102398,-2.932817523059329 -1.3402716837907211,-5.867966379602808 -5.019803389037421,-5.867966379602808 C116.57877547473346,23.023856948288277 115.01700863915268,25.78415579352059 114.57175818096252,28.89182332789109 z" id="svg_5"/>
    <path class="cls-1" d="M130.90589554817257,55.410741710084935 V51.5570474607868 A15.868545517528922,16.3682923922095 0 0 0 133.6881458732086,51.90208481644084 c2.3415201760660818,0 2.956282230013934,-1.380149422616155 2.956282230013934,-3.1636195379900722 c0,-3.0493841972667752 -1.729018276728333,-7.823955172803744 -1.729018276728333,-11.966734774136357 c0,-3.392090219436665 1.1707600880330409,-6.3855224130838675 5.5215577124801545,-7.534869820769279 c-4.350797624447112,-1.1493474076854127 -5.5215577124801545,-4.142779601332614 -5.5215577124801545,-7.534869820769279 c0,-4.142779601332614 1.729018276728333,-8.917350576869582 1.729018276728333,-11.966734774136357 c0,-1.7834701153739168 -0.6147620539478517,-3.1636195379900722 -2.956282230013934,-3.1636195379900722 a15.868545517528922,16.3682923922095 0 0 0 -2.7890307888663566,0.3450373556540388 V3.0629796570053074 a15.877586135969329,16.377617726146095 0 0 1 4.016294742151957,-0.5758393705847812 c5.465053847227594,0 7.472071140998522,3.4970002262233657 7.472071140998522,6.903078446564924 c0,3.0493841972667752 -1.6160105462232135,7.765671835700022 -1.6160105462232135,11.332612066447854 c0,3.2219028750937944 1.3380115291806187,5.809683042499085 6.412058628860497,6.154720398153123 v4.718618971917395 c-5.074047099679879,0.3450373556540388 -6.412058628860497,2.932817523059329 -6.412058628860497,6.154720398153123 c0,3.5669402307478335 1.6160105462232135,8.283227869181081 1.6160105462232135,11.332612066447854 c0,3.394421552920814 -2.007017293770928,6.903078446564924 -7.472071140998522,6.903078446564924 A15.877586135969329,16.377617726146095 0 0 1 130.90589554817257,55.410741710084935 z" id="svg_6"/>
    <path class="cls-2" d="M150.65512653124728,50.11861470106691 h3.681791859856803 v-26.110935022467796 H150.65512653124728 V18.939360684059388 h9.535592300022007 v2.704346841612736 c1.6747745660858757,-1.8417534524776396 3.905547166256941,-3.336138215817091 7.4178274303560645,-3.336138215817091 c6.525066359365617,0 10.708612542665154,5.128933665127603 10.708612542665154,12.88528016689103 c0,7.996473850630761 -4.405041335089569,13.230317522545066 -11.321114442002902,13.230317522545066 c-2.621779347718779,0 -4.685300506742267,-0.7483580484118004 -6.35781491821804,-1.955988793200936 v7.651436494976723 h4.405041335089569 v5.128933665127603 H150.65512653124728 zm9.983102912822282,-24.73544826681994 v12.540242811236988 c1.1707600880330409,0.9768287298583935 2.676023058361237,1.5526681004431746 4.685300506742267,1.5526681004431746 c4.405041335089569,0 6.525066359365617,-3.1636195379900722 6.525066359365617,-8.052425854250336 c0,-4.373581616263357 -1.729018276728333,-8.159667194521187 -6.0798159011754445,-8.159667194521187 A7.429128203406574,7.663093162397468 0 0 0 160.63822944406957,25.383166434246977 z" id="svg_7"/>
    <path class="cls-2" d="M180.5908743420535,38.727719297515335 h3.681791859856803 V24.000685678146667 H180.5908743420535 V18.939360684059388 h9.761607761032247 v4.5437689606062275 c1.2250037986754991,-2.3569781524745483 3.6162473761638343,-5.175560334810581 7.973825464441253,-5.175560334810581 h0.501754323442732 v6.558041090910885 h-1.003508646885464 c-3.568784129351684,0 -5.910304305417765,0.7460267149276515 -7.250575989208486,1.6109514375468978 v12.251157459202524 H194.75752343817535 v5.063656327571433 H180.5908743420535 z" id="svg_8"/>
    <path class="cls-2" d="M200.5887223322395,31.365368154573076 c0,-7.707388498596299 4.5722927762371475,-13.055467511233898 12.715629836436081,-13.055467511233898 s12.715629836436081,5.350410346121749 12.715629836436081,13.055467511233898 s-4.5722927762371475,13.055467511233898 -12.715629836436081,13.055467511233898 S200.5887223322395,39.07275665316938 200.5887223322395,31.365368154573076 zm18.906193313506545,0 c0,-4.5437689606062275 -1.8962697178759105,-8.159667194521187 -6.190563477070462,-8.159667194521187 s-6.190563477070462,3.6252235678515565 -6.190563477070462,8.159667194521187 s1.8962697178759105,8.159667194521187 6.190563477070462,8.159667194521187 S219.49039533652584,35.909137115179306 219.49039533652584,31.365368154573076 z" id="svg_9"/>
  </g>
</svg>